<svg width="24" height="25" viewBox="0 0 24 25" fill="none" xmlns="http://www.w3.org/2000/svg">
<mask id="path-1-inside-1_5004_1827" fill="white">
<path fill-rule="evenodd" clip-rule="evenodd" d="M4.47998 1.9635H4.39998C4.03358 1.9635 3.71838 1.9635 3.43998 2.0291C3.00899 2.13208 2.61494 2.35238 2.30146 2.66556C1.98799 2.97875 1.76735 3.37261 1.66398 3.8035C1.59998 4.0819 1.59998 4.3955 1.59998 4.7635V8.7635C1.59998 9.1299 1.59998 9.4451 1.66558 9.7235C1.76856 10.1545 1.98885 10.5485 2.30204 10.862C2.61523 11.1755 3.00909 11.3961 3.43998 11.4995C3.71838 11.5635 4.03198 11.5635 4.39998 11.5635H8.39998C8.76638 11.5635 9.08158 11.5635 9.35998 11.4979C9.79096 11.3949 10.185 11.1746 10.4985 10.8614C10.812 10.5482 11.0326 10.1544 11.136 9.7235C11.2 9.4451 11.2 9.1315 11.2 8.7635V4.7635C11.2 4.3971 11.2 4.0819 11.1344 3.8035C11.0314 3.37252 10.8111 2.97846 10.4979 2.66499C10.1847 2.35152 9.79087 2.13087 9.35998 2.0275C9.08158 1.9635 8.76798 1.9635 8.39998 1.9635H8.31998H4.47998ZM3.81278 3.5859C3.88158 3.5699 3.98878 3.5635 4.47998 3.5635H8.31998C8.81278 3.5635 8.91838 3.5683 8.98718 3.5859C9.1309 3.62027 9.2623 3.69378 9.3668 3.79828C9.4713 3.90277 9.54481 4.03417 9.57918 4.1779C9.59518 4.2451 9.59998 4.3507 9.59998 4.8435V8.6835C9.59998 9.1763 9.59518 9.2819 9.57758 9.3507C9.54321 9.49443 9.4697 9.62583 9.3652 9.73032C9.2607 9.83482 9.1293 9.90833 8.98558 9.9427C8.91998 9.9571 8.81438 9.9635 8.31998 9.9635H4.47998C3.98718 9.9635 3.88158 9.9587 3.81278 9.9411C3.66905 9.90673 3.53765 9.83322 3.43315 9.72872C3.32866 9.62423 3.25515 9.49283 3.22078 9.3491C3.20638 9.2835 3.19998 9.1779 3.19998 8.6835V4.8435C3.19998 4.3507 3.20478 4.2451 3.22238 4.1763C3.25675 4.03257 3.33026 3.90117 3.43475 3.79668C3.53925 3.69218 3.67065 3.61867 3.81438 3.5843M15.68 1.9635H15.6C15.2336 1.9635 14.9184 1.9635 14.64 2.0291C14.209 2.13208 13.8149 2.35238 13.5015 2.66556C13.188 2.97875 12.9673 3.37261 12.864 3.8035C12.8 4.0819 12.8 4.3955 12.8 4.7635V8.7635C12.8 9.1299 12.8 9.4451 12.8656 9.7235C12.9686 10.1545 13.1889 10.5485 13.502 10.862C13.8152 11.1755 14.2091 11.3961 14.64 11.4995C14.9184 11.5635 15.232 11.5635 15.6 11.5635H19.6C19.9664 11.5635 20.2816 11.5635 20.56 11.4979C20.991 11.3949 21.385 11.1746 21.6985 10.8614C22.012 10.5482 22.2326 10.1544 22.336 9.7235C22.4 9.4451 22.4 9.1315 22.4 8.7635V4.7635C22.4 4.3971 22.4 4.0819 22.3344 3.8035C22.2314 3.37252 22.0111 2.97846 21.6979 2.66499C21.3847 2.35152 20.9909 2.13087 20.56 2.0275C20.2816 1.9635 19.968 1.9635 19.6 1.9635H19.52H15.68ZM15.0128 3.5859C15.0816 3.5699 15.1888 3.5635 15.68 3.5635H19.52C20.0128 3.5635 20.1184 3.5683 20.1872 3.5859C20.3309 3.62027 20.4623 3.69378 20.5668 3.79828C20.6713 3.90277 20.7448 4.03417 20.7792 4.1779C20.7952 4.2451 20.8 4.3507 20.8 4.8435V8.6835C20.8 9.1763 20.7936 9.2819 20.7776 9.3507C20.7432 9.49443 20.6697 9.62583 20.5652 9.73032C20.4607 9.83482 20.3293 9.90833 20.1856 9.9427C20.1184 9.9587 20.0128 9.9635 19.52 9.9635H15.68C15.1872 9.9635 15.0816 9.9587 15.0128 9.9411C14.869 9.90673 14.7377 9.83322 14.6332 9.72872C14.5287 9.62423 14.4551 9.49283 14.4208 9.3491C14.4064 9.2835 14.4 9.1779 14.4 8.6835V4.8435C14.4 4.3507 14.4048 4.2451 14.4224 4.1763C14.4567 4.03257 14.5303 3.90117 14.6348 3.79668C14.7392 3.69218 14.8706 3.61867 15.0144 3.5843M4.39998 13.1635H8.39998C8.76638 13.1635 9.08158 13.1635 9.35998 13.2291C9.79096 13.3321 10.185 13.5524 10.4985 13.8656C10.812 14.1788 11.0326 14.5726 11.136 15.0035C11.2 15.2819 11.2 15.5955 11.2 15.9635V19.9635C11.2 20.3299 11.2 20.6451 11.1344 20.9235C11.0314 21.3545 10.8111 21.7485 10.4979 22.062C10.1847 22.3755 9.79087 22.5961 9.35998 22.6995C9.08158 22.7635 8.76798 22.7635 8.39998 22.7635H4.39998C4.03358 22.7635 3.71838 22.7635 3.43998 22.6979C3.00899 22.5949 2.61494 22.3746 2.30146 22.0614C1.98799 21.7482 1.76735 21.3544 1.66398 20.9235C1.59998 20.6451 1.59998 20.3315 1.59998 19.9635V15.9635C1.59998 15.5971 1.59998 15.2819 1.66558 15.0035C1.76856 14.5725 1.98885 14.1785 2.30204 13.865C2.61523 13.5515 3.00909 13.3309 3.43998 13.2275C3.71838 13.1635 4.03198 13.1635 4.39998 13.1635ZM4.47998 14.7635C3.98718 14.7635 3.88158 14.7683 3.81278 14.7859C3.66905 14.8203 3.53765 14.8938 3.43315 14.9983C3.32866 15.1028 3.25515 15.2342 3.22078 15.3779C3.20638 15.4435 3.19998 15.5491 3.19998 16.0435V19.8835C3.19998 20.3763 3.20478 20.4819 3.22238 20.5507C3.25675 20.6944 3.33026 20.8258 3.43475 20.9303C3.53925 21.0348 3.67065 21.1083 3.81438 21.1427C3.88158 21.1587 3.98718 21.1635 4.47998 21.1635H8.31998C8.81278 21.1635 8.91838 21.1571 8.98718 21.1411C9.1309 21.1067 9.2623 21.0332 9.3668 20.9287C9.4713 20.8242 9.54481 20.6928 9.57918 20.5491C9.59518 20.4819 9.59998 20.3763 9.59998 19.8835V16.0435C9.59998 15.5507 9.59518 15.4451 9.57758 15.3763C9.54321 15.2326 9.4697 15.1012 9.3652 14.9967C9.2607 14.8922 9.1293 14.8187 8.98558 14.7843C8.91998 14.7699 8.81438 14.7635 8.31998 14.7635H4.47998ZM15.68 13.1635H15.6C15.2336 13.1635 14.9184 13.1635 14.64 13.2291C14.209 13.3321 13.8149 13.5524 13.5015 13.8656C13.188 14.1788 12.9673 14.5726 12.864 15.0035C12.8 15.2819 12.8 15.5955 12.8 15.9635V19.9635C12.8 20.3299 12.8 20.6451 12.8656 20.9235C12.9686 21.3545 13.1889 21.7485 13.502 22.062C13.8152 22.3755 14.2091 22.5961 14.64 22.6995C14.9184 22.7651 15.2336 22.7651 15.6 22.7651H19.6C19.9664 22.7651 20.2816 22.7651 20.56 22.6995C20.9907 22.5963 21.3844 22.3759 21.6976 22.0627C22.0107 21.7495 22.2311 21.3558 22.3344 20.9251C22.4 20.6467 22.4 20.3315 22.4 19.9651V15.9635C22.4 15.5971 22.4 15.2819 22.3344 15.0035C22.2314 14.5725 22.0111 14.1785 21.6979 13.865C21.3847 13.5515 20.9909 13.3309 20.56 13.2275C20.2816 13.1635 19.968 13.1635 19.6 13.1635H19.52H15.68ZM15.0128 14.7859C15.0816 14.7699 15.1888 14.7635 15.68 14.7635H19.52C20.0128 14.7635 20.1184 14.7683 20.1872 14.7859C20.3309 14.8203 20.4623 14.8938 20.5668 14.9983C20.6713 15.1028 20.7448 15.2342 20.7792 15.3779C20.7952 15.4451 20.8 15.5507 20.8 16.0435V19.8835C20.8 20.3763 20.7936 20.4819 20.7776 20.5507C20.7432 20.6944 20.6697 20.8258 20.5652 20.9303C20.4607 21.0348 20.3293 21.1083 20.1856 21.1427C20.1184 21.1587 20.0128 21.1635 19.52 21.1635H15.68C15.1872 21.1635 15.0816 21.1571 15.0128 21.1411C14.869 21.1067 14.7377 21.0332 14.6332 20.9287C14.5287 20.8242 14.4551 20.6928 14.4208 20.5491C14.4064 20.4835 14.4 20.3779 14.4 19.8835V16.0435C14.4 15.5507 14.4048 15.4451 14.4224 15.3763C14.4567 15.2326 14.5303 15.1012 14.6348 14.9967C14.7392 14.8922 14.8706 14.8187 15.0144 14.7843"/>
</mask>
<path fill-rule="evenodd" clip-rule="evenodd" d="M4.47998 1.9635H4.39998C4.03358 1.9635 3.71838 1.9635 3.43998 2.0291C3.00899 2.13208 2.61494 2.35238 2.30146 2.66556C1.98799 2.97875 1.76735 3.37261 1.66398 3.8035C1.59998 4.0819 1.59998 4.3955 1.59998 4.7635V8.7635C1.59998 9.1299 1.59998 9.4451 1.66558 9.7235C1.76856 10.1545 1.98885 10.5485 2.30204 10.862C2.61523 11.1755 3.00909 11.3961 3.43998 11.4995C3.71838 11.5635 4.03198 11.5635 4.39998 11.5635H8.39998C8.76638 11.5635 9.08158 11.5635 9.35998 11.4979C9.79096 11.3949 10.185 11.1746 10.4985 10.8614C10.812 10.5482 11.0326 10.1544 11.136 9.7235C11.2 9.4451 11.2 9.1315 11.2 8.7635V4.7635C11.2 4.3971 11.2 4.0819 11.1344 3.8035C11.0314 3.37252 10.8111 2.97846 10.4979 2.66499C10.1847 2.35152 9.79087 2.13087 9.35998 2.0275C9.08158 1.9635 8.76798 1.9635 8.39998 1.9635H8.31998H4.47998ZM3.81278 3.5859C3.88158 3.5699 3.98878 3.5635 4.47998 3.5635H8.31998C8.81278 3.5635 8.91838 3.5683 8.98718 3.5859C9.1309 3.62027 9.2623 3.69378 9.3668 3.79828C9.4713 3.90277 9.54481 4.03417 9.57918 4.1779C9.59518 4.2451 9.59998 4.3507 9.59998 4.8435V8.6835C9.59998 9.1763 9.59518 9.2819 9.57758 9.3507C9.54321 9.49443 9.4697 9.62583 9.3652 9.73032C9.2607 9.83482 9.1293 9.90833 8.98558 9.9427C8.91998 9.9571 8.81438 9.9635 8.31998 9.9635H4.47998C3.98718 9.9635 3.88158 9.9587 3.81278 9.9411C3.66905 9.90673 3.53765 9.83322 3.43315 9.72872C3.32866 9.62423 3.25515 9.49283 3.22078 9.3491C3.20638 9.2835 3.19998 9.1779 3.19998 8.6835V4.8435C3.19998 4.3507 3.20478 4.2451 3.22238 4.1763C3.25675 4.03257 3.33026 3.90117 3.43475 3.79668C3.53925 3.69218 3.67065 3.61867 3.81438 3.5843M15.68 1.9635H15.6C15.2336 1.9635 14.9184 1.9635 14.64 2.0291C14.209 2.13208 13.8149 2.35238 13.5015 2.66556C13.188 2.97875 12.9673 3.37261 12.864 3.8035C12.8 4.0819 12.8 4.3955 12.8 4.7635V8.7635C12.8 9.1299 12.8 9.4451 12.8656 9.7235C12.9686 10.1545 13.1889 10.5485 13.502 10.862C13.8152 11.1755 14.2091 11.3961 14.64 11.4995C14.9184 11.5635 15.232 11.5635 15.6 11.5635H19.6C19.9664 11.5635 20.2816 11.5635 20.56 11.4979C20.991 11.3949 21.385 11.1746 21.6985 10.8614C22.012 10.5482 22.2326 10.1544 22.336 9.7235C22.4 9.4451 22.4 9.1315 22.4 8.7635V4.7635C22.4 4.3971 22.4 4.0819 22.3344 3.8035C22.2314 3.37252 22.0111 2.97846 21.6979 2.66499C21.3847 2.35152 20.9909 2.13087 20.56 2.0275C20.2816 1.9635 19.968 1.9635 19.6 1.9635H19.52H15.68ZM15.0128 3.5859C15.0816 3.5699 15.1888 3.5635 15.68 3.5635H19.52C20.0128 3.5635 20.1184 3.5683 20.1872 3.5859C20.3309 3.62027 20.4623 3.69378 20.5668 3.79828C20.6713 3.90277 20.7448 4.03417 20.7792 4.1779C20.7952 4.2451 20.8 4.3507 20.8 4.8435V8.6835C20.8 9.1763 20.7936 9.2819 20.7776 9.3507C20.7432 9.49443 20.6697 9.62583 20.5652 9.73032C20.4607 9.83482 20.3293 9.90833 20.1856 9.9427C20.1184 9.9587 20.0128 9.9635 19.52 9.9635H15.68C15.1872 9.9635 15.0816 9.9587 15.0128 9.9411C14.869 9.90673 14.7377 9.83322 14.6332 9.72872C14.5287 9.62423 14.4551 9.49283 14.4208 9.3491C14.4064 9.2835 14.4 9.1779 14.4 8.6835V4.8435C14.4 4.3507 14.4048 4.2451 14.4224 4.1763C14.4567 4.03257 14.5303 3.90117 14.6348 3.79668C14.7392 3.69218 14.8706 3.61867 15.0144 3.5843M4.39998 13.1635H8.39998C8.76638 13.1635 9.08158 13.1635 9.35998 13.2291C9.79096 13.3321 10.185 13.5524 10.4985 13.8656C10.812 14.1788 11.0326 14.5726 11.136 15.0035C11.2 15.2819 11.2 15.5955 11.2 15.9635V19.9635C11.2 20.3299 11.2 20.6451 11.1344 20.9235C11.0314 21.3545 10.8111 21.7485 10.4979 22.062C10.1847 22.3755 9.79087 22.5961 9.35998 22.6995C9.08158 22.7635 8.76798 22.7635 8.39998 22.7635H4.39998C4.03358 22.7635 3.71838 22.7635 3.43998 22.6979C3.00899 22.5949 2.61494 22.3746 2.30146 22.0614C1.98799 21.7482 1.76735 21.3544 1.66398 20.9235C1.59998 20.6451 1.59998 20.3315 1.59998 19.9635V15.9635C1.59998 15.5971 1.59998 15.2819 1.66558 15.0035C1.76856 14.5725 1.98885 14.1785 2.30204 13.865C2.61523 13.5515 3.00909 13.3309 3.43998 13.2275C3.71838 13.1635 4.03198 13.1635 4.39998 13.1635ZM4.47998 14.7635C3.98718 14.7635 3.88158 14.7683 3.81278 14.7859C3.66905 14.8203 3.53765 14.8938 3.43315 14.9983C3.32866 15.1028 3.25515 15.2342 3.22078 15.3779C3.20638 15.4435 3.19998 15.5491 3.19998 16.0435V19.8835C3.19998 20.3763 3.20478 20.4819 3.22238 20.5507C3.25675 20.6944 3.33026 20.8258 3.43475 20.9303C3.53925 21.0348 3.67065 21.1083 3.81438 21.1427C3.88158 21.1587 3.98718 21.1635 4.47998 21.1635H8.31998C8.81278 21.1635 8.91838 21.1571 8.98718 21.1411C9.1309 21.1067 9.2623 21.0332 9.3668 20.9287C9.4713 20.8242 9.54481 20.6928 9.57918 20.5491C9.59518 20.4819 9.59998 20.3763 9.59998 19.8835V16.0435C9.59998 15.5507 9.59518 15.4451 9.57758 15.3763C9.54321 15.2326 9.4697 15.1012 9.3652 14.9967C9.2607 14.8922 9.1293 14.8187 8.98558 14.7843C8.91998 14.7699 8.81438 14.7635 8.31998 14.7635H4.47998ZM15.68 13.1635H15.6C15.2336 13.1635 14.9184 13.1635 14.64 13.2291C14.209 13.3321 13.8149 13.5524 13.5015 13.8656C13.188 14.1788 12.9673 14.5726 12.864 15.0035C12.8 15.2819 12.8 15.5955 12.8 15.9635V19.9635C12.8 20.3299 12.8 20.6451 12.8656 20.9235C12.9686 21.3545 13.1889 21.7485 13.502 22.062C13.8152 22.3755 14.2091 22.5961 14.64 22.6995C14.9184 22.7651 15.2336 22.7651 15.6 22.7651H19.6C19.9664 22.7651 20.2816 22.7651 20.56 22.6995C20.9907 22.5963 21.3844 22.3759 21.6976 22.0627C22.0107 21.7495 22.2311 21.3558 22.3344 20.9251C22.4 20.6467 22.4 20.3315 22.4 19.9651V15.9635C22.4 15.5971 22.4 15.2819 22.3344 15.0035C22.2314 14.5725 22.0111 14.1785 21.6979 13.865C21.3847 13.5515 20.9909 13.3309 20.56 13.2275C20.2816 13.1635 19.968 13.1635 19.6 13.1635H19.52H15.68ZM15.0128 14.7859C15.0816 14.7699 15.1888 14.7635 15.68 14.7635H19.52C20.0128 14.7635 20.1184 14.7683 20.1872 14.7859C20.3309 14.8203 20.4623 14.8938 20.5668 14.9983C20.6713 15.1028 20.7448 15.2342 20.7792 15.3779C20.7952 15.4451 20.8 15.5507 20.8 16.0435V19.8835C20.8 20.3763 20.7936 20.4819 20.7776 20.5507C20.7432 20.6944 20.6697 20.8258 20.5652 20.9303C20.4607 21.0348 20.3293 21.1083 20.1856 21.1427C20.1184 21.1587 20.0128 21.1635 19.52 21.1635H15.68C15.1872 21.1635 15.0816 21.1571 15.0128 21.1411C14.869 21.1067 14.7377 21.0332 14.6332 20.9287C14.5287 20.8242 14.4551 20.6928 14.4208 20.5491C14.4064 20.4835 14.4 20.3779 14.4 19.8835V16.0435C14.4 15.5507 14.4048 15.4451 14.4224 15.3763C14.4567 15.2326 14.5303 15.1012 14.6348 14.9967C14.7392 14.8922 14.8706 14.8187 15.0144 14.7843" fill="#4B01B9"/>
<path d="M3.43998 2.0291L2.95069 -0.0473762L2.94417 -0.0458181L3.43998 2.0291ZM1.66398 3.8035L-0.410496 3.30583L-0.412859 3.31568L-0.415128 3.32555L1.66398 3.8035ZM1.66558 9.7235L-0.410901 10.2128L-0.409343 10.2193L1.66558 9.7235ZM3.43998 11.4995L2.9423 13.574L2.95215 13.5763L2.96202 13.5786L3.43998 11.4995ZM9.35998 11.4979L9.84926 13.5744L9.85578 13.5728L9.35998 11.4979ZM11.136 9.7235L13.2104 10.2212L13.2128 10.2113L13.2151 10.2015L11.136 9.7235ZM11.1344 3.8035L13.2109 3.31422L13.2093 3.3077L11.1344 3.8035ZM9.35998 2.0275L9.85765 -0.0469706L9.8478 -0.0493333L9.83793 -0.0516024L9.35998 2.0275ZM8.98718 3.5859L8.45847 5.65268L8.47471 5.65683L8.49101 5.66073L8.98718 3.5859ZM9.57918 4.1779L11.6545 3.68378L11.654 3.68174L9.57918 4.1779ZM9.57758 9.3507L7.5108 8.82199L7.50664 8.83823L7.50274 8.85454L9.57758 9.3507ZM8.98558 9.9427L9.44298 12.0264L9.4624 12.0222L9.48174 12.0175L8.98558 9.9427ZM3.81278 9.9411L4.34149 7.87432L4.32525 7.87017L4.30894 7.86627L3.81278 9.9411ZM3.22078 9.3491L1.13705 9.8065L1.14132 9.82593L1.14594 9.84527L3.22078 9.3491ZM3.22238 4.1763L5.28915 4.70501L5.29331 4.68877L5.29721 4.67247L3.22238 4.1763ZM14.64 2.0291L14.1507 -0.0473762L14.1442 -0.0458181L14.64 2.0291ZM12.864 3.8035L10.7895 3.30583L10.7871 3.31568L10.7849 3.32555L12.864 3.8035ZM12.8656 9.7235L10.7891 10.2128L10.7907 10.2193L12.8656 9.7235ZM14.64 11.4995L14.1423 13.574L14.1522 13.5763L14.162 13.5786L14.64 11.4995ZM20.56 11.4979L21.0493 13.5744L21.0558 13.5728L20.56 11.4979ZM22.336 9.7235L24.4104 10.2212L24.4128 10.2113L24.4151 10.2015L22.336 9.7235ZM22.3344 3.8035L24.4109 3.31422L24.4093 3.3077L22.3344 3.8035ZM20.56 2.0275L21.0577 -0.0469706L21.0478 -0.0493333L21.0379 -0.0516024L20.56 2.0275ZM20.1872 3.5859L19.6585 5.65268L19.6747 5.65683L19.691 5.66073L20.1872 3.5859ZM20.7792 4.1779L22.8545 3.68378L22.854 3.68174L20.7792 4.1779ZM20.7776 9.3507L22.8525 9.84688L22.8555 9.83393L20.7776 9.3507ZM20.1856 9.9427L20.6797 12.018L20.6817 12.0175L20.1856 9.9427ZM15.0128 9.9411L15.5415 7.87432L15.5252 7.87017L15.5089 7.86627L15.0128 9.9411ZM14.4208 9.3491L12.3371 9.8065L12.3413 9.82593L12.3459 9.84527L14.4208 9.3491ZM14.4224 4.1763L16.4892 4.70501L16.4933 4.68877L16.4972 4.67247L14.4224 4.1763ZM9.35998 13.2291L9.85578 11.1542L9.84926 11.1526L9.35998 13.2291ZM11.136 15.0035L13.2151 14.5255L13.2128 14.5157L13.2104 14.5058L11.136 15.0035ZM11.1344 20.9235L13.2093 21.4193L13.2108 21.4128L11.1344 20.9235ZM9.35998 22.6995L9.83793 24.7786L9.8478 24.7763L9.85765 24.774L9.35998 22.6995ZM3.43998 22.6979L2.94417 24.7728L2.95069 24.7744L3.43998 22.6979ZM1.66398 20.9235L-0.415128 21.4015L-0.412859 21.4113L-0.410496 21.4212L1.66398 20.9235ZM1.66558 15.0035L-0.409354 14.5077L-0.410891 14.5142L1.66558 15.0035ZM3.43998 13.2275L2.96202 11.1484L2.95215 11.1507L2.9423 11.153L3.43998 13.2275ZM3.81278 14.7859L4.30894 16.8607L4.32525 16.8568L4.34149 16.8527L3.81278 14.7859ZM3.22078 15.3779L1.14594 14.8817L1.14132 14.9011L1.13705 14.9205L3.22078 15.3779ZM3.22238 20.5507L5.29721 20.0545L5.29331 20.0382L5.28915 20.022L3.22238 20.5507ZM3.81438 21.1427L3.31821 23.2175L3.32025 23.218L3.81438 21.1427ZM8.98718 21.1411L9.47041 23.219L9.48334 23.2159L8.98718 21.1411ZM9.57918 20.5491L11.654 21.0453L11.6545 21.0432L9.57918 20.5491ZM9.57758 15.3763L7.50274 15.8725L7.50664 15.8888L7.5108 15.905L9.57758 15.3763ZM8.98558 14.7843L9.48174 12.7095L9.4624 12.7048L9.44298 12.7006L8.98558 14.7843ZM14.64 13.2291L14.1507 11.1526L14.1442 11.1542L14.64 13.2291ZM12.864 15.0035L10.7895 14.5058L10.7871 14.5157L10.7849 14.5255L12.864 15.0035ZM12.8656 20.9235L10.7891 21.4128L10.7907 21.4193L12.8656 20.9235ZM14.64 22.6995L14.1423 24.774L14.1507 24.776L14.64 22.6995ZM20.56 22.6995L21.0493 24.776L21.0573 24.7741L20.56 22.6995ZM22.3344 20.9251L24.409 21.4224L24.4108 21.4144L22.3344 20.9251ZM22.3344 15.0035L24.4109 14.5142L24.4093 14.5077L22.3344 15.0035ZM20.56 13.2275L21.0577 11.153L21.0478 11.1507L21.0379 11.1484L20.56 13.2275ZM20.1872 14.7859L19.6585 16.8527L19.6747 16.8568L19.691 16.8607L20.1872 14.7859ZM20.7792 15.3779L22.8545 14.8838L22.854 14.8817L20.7792 15.3779ZM20.7776 20.5507L22.8525 21.0469L22.8555 21.0339L20.7776 20.5507ZM20.1856 21.1427L20.6797 23.218L20.6817 23.2175L20.1856 21.1427ZM15.0128 21.1411L14.5166 23.216L14.5295 23.219L15.0128 21.1411ZM14.4208 20.5491L12.3371 21.0065L12.3413 21.0259L12.3459 21.0453L14.4208 20.5491ZM14.4224 15.3763L16.4892 15.905L16.4933 15.8888L16.4972 15.8725L14.4224 15.3763ZM4.47998 -0.169832H4.39998V4.09683H4.47998V-0.169832ZM4.39998 -0.169832C4.10379 -0.169832 3.51899 -0.181275 2.95069 -0.0473659L3.92926 4.10557C3.89855 4.1128 3.90836 4.10676 3.99658 4.10222C4.09092 4.09736 4.20396 4.09683 4.39998 4.09683V-0.169832ZM2.94417 -0.0458181C2.13009 0.148707 1.38576 0.564811 0.79365 1.15639L3.80928 4.17474C3.84411 4.13994 3.88789 4.11546 3.93578 4.10402L2.94417 -0.0458181ZM0.79365 1.15639C0.201538 1.74797 -0.215237 2.49192 -0.410496 3.30583L3.73845 4.30118C3.74993 4.2533 3.77445 4.20954 3.80928 4.17474L0.79365 1.15639ZM-0.415128 3.32555C-0.544266 3.8873 -0.533358 4.46391 -0.533358 4.7635H3.73331C3.73331 4.56687 3.73382 4.45258 3.73862 4.35697C3.74311 4.26767 3.7492 4.25482 3.74308 4.28146L-0.415128 3.32555ZM-0.533358 4.7635V8.7635H3.73331V4.7635H-0.533358ZM-0.533358 8.7635C-0.533358 9.05969 -0.544801 9.64448 -0.410891 10.2128L3.74204 9.23422C3.74928 9.26493 3.74323 9.25512 3.73869 9.1669C3.73384 9.07256 3.73331 8.95952 3.73331 8.7635H-0.533358ZM-0.409343 10.2193C-0.214818 11.0334 0.201286 11.7777 0.792865 12.3698L3.81121 9.3542C3.77641 9.31937 3.75194 9.27558 3.74049 9.2277L-0.409343 10.2193ZM0.792865 12.3698C1.38444 12.9619 2.1284 13.3787 2.9423 13.574L3.93765 9.42503C3.88977 9.41354 3.84601 9.38903 3.81121 9.3542L0.792865 12.3698ZM2.96202 13.5786C3.52377 13.7077 4.10039 13.6968 4.39998 13.6968V9.43017C4.20334 9.43017 4.08905 9.42966 3.99344 9.42486C3.90414 9.42037 3.8913 9.41428 3.91793 9.4204L2.96202 13.5786ZM4.39998 13.6968H8.39998V9.43017H4.39998V13.6968ZM8.39998 13.6968C8.69616 13.6968 9.28096 13.7083 9.84926 13.5744L8.87069 9.42143C8.90141 9.4142 8.89159 9.42025 8.80338 9.42479C8.70904 9.42964 8.596 9.43017 8.39998 9.43017V13.6968ZM9.85578 13.5728C10.6699 13.3783 11.4142 12.9622 12.0063 12.3706L8.99067 9.35226C8.95584 9.38706 8.91206 9.41154 8.86417 9.42298L9.85578 13.5728ZM12.0063 12.3706C12.5984 11.779 13.0152 11.0351 13.2104 10.2212L9.06151 9.22583C9.05002 9.2737 9.0255 9.31746 8.99067 9.35226L12.0063 12.3706ZM13.2151 10.2015C13.3442 9.63971 13.3333 9.06309 13.3333 8.7635H9.06664C9.06664 8.96013 9.06614 9.07442 9.06133 9.17003C9.05684 9.25933 9.05075 9.27218 9.05687 9.24555L13.2151 10.2015ZM13.3333 8.7635V4.7635H9.06664V8.7635H13.3333ZM13.3333 4.7635C13.3333 4.46731 13.3448 3.88252 13.2108 3.31422L9.05791 4.29278C9.05067 4.26207 9.05672 4.27189 9.06126 4.3601C9.06611 4.45444 9.06664 4.56748 9.06664 4.7635H13.3333ZM13.2093 3.3077C13.0148 2.49362 12.5987 1.74929 12.0071 1.15718L8.98874 4.1728C9.02354 4.20763 9.04802 4.25142 9.05946 4.29931L13.2093 3.3077ZM12.0071 1.15718C11.4155 0.565063 10.6716 0.148288 9.85765 -0.0469706L8.8623 4.10197C8.91018 4.11346 8.95394 4.13797 8.98874 4.1728L12.0071 1.15718ZM9.83793 -0.0516024C9.27618 -0.18074 8.69956 -0.169832 8.39998 -0.169832V4.09683C8.59661 4.09683 8.7109 4.09734 8.80651 4.10215C8.89581 4.10663 8.90865 4.11273 8.88202 4.1066L9.83793 -0.0516024ZM8.39998 -0.169832H8.31998V4.09683H8.39998V-0.169832ZM8.31998 -0.169832H4.47998V4.09683H8.31998V-0.169832ZM4.296 5.66378C4.25855 5.6725 4.22097 5.67991 4.18402 5.68593C4.14829 5.69175 4.1188 5.69534 4.09768 5.69754C4.05984 5.70147 4.04333 5.70145 4.06726 5.70056C4.08912 5.69975 4.12985 5.69872 4.20078 5.69796C4.27047 5.69723 4.36098 5.69683 4.47998 5.69683V1.43017C4.12065 1.43017 3.69936 1.42201 3.32955 1.50802L4.296 5.66378ZM4.47998 5.69683H8.31998V1.43017H4.47998V5.69683ZM8.31998 5.69683C8.44068 5.69683 8.53232 5.69713 8.60318 5.69777C8.67556 5.69843 8.71609 5.69936 8.73754 5.70011C8.74741 5.70046 8.74819 5.7006 8.7424 5.70024C8.7367 5.69988 8.72007 5.69876 8.69573 5.69615C8.67074 5.69347 8.63568 5.68902 8.59325 5.68164C8.54934 5.674 8.50413 5.66436 8.45847 5.65268L9.51589 1.51912C9.24994 1.45109 9.01736 1.44065 8.88762 1.43609C8.7476 1.43116 8.56112 1.43017 8.31998 1.43017V5.69683ZM8.49101 5.66073C8.25146 5.60345 8.03246 5.48093 7.8583 5.30677L10.8753 2.28978C10.4921 1.90663 10.0103 1.63709 9.48334 1.51107L8.49101 5.66073ZM7.8583 5.30677C7.68415 5.13261 7.56163 4.91362 7.50434 4.67407L11.654 3.68174C11.528 3.15473 11.2584 2.67294 10.8753 2.28978L7.8583 5.30677ZM7.50386 4.67202C7.49359 4.62892 7.48524 4.58667 7.47869 4.54612C7.47236 4.50701 7.46861 4.47505 7.46639 4.45284C7.46246 4.41347 7.46256 4.39601 7.46342 4.42188C7.46419 4.44509 7.46509 4.48702 7.46572 4.55966C7.46635 4.63092 7.46664 4.7229 7.46664 4.8435H11.7333C11.7333 4.6012 11.7323 4.41738 11.7277 4.28032C11.7236 4.15471 11.7143 3.93476 11.6545 3.68378L7.50386 4.67202ZM7.46664 4.8435V8.6835H11.7333V4.8435H7.46664ZM7.46664 8.6835C7.46664 8.8042 7.46634 8.89585 7.4657 8.96671C7.46505 9.03908 7.46412 9.07962 7.46336 9.10106C7.46302 9.11094 7.46288 9.11171 7.46324 9.10593C7.4636 9.10022 7.46472 9.0836 7.46733 9.05925C7.47001 9.03427 7.47446 8.99921 7.48184 8.95678C7.48948 8.91286 7.49912 8.86765 7.5108 8.82199L11.6444 9.87941C11.7124 9.61347 11.7228 9.38089 11.7274 9.25114C11.7323 9.11112 11.7333 8.92464 11.7333 8.6835H7.46664ZM7.50274 8.85454C7.56003 8.61498 7.68255 8.39599 7.8567 8.22183L10.8737 11.2388C11.2568 10.8557 11.5264 10.3739 11.6524 9.84687L7.50274 8.85454ZM7.8567 8.22183C8.03086 8.04767 8.24986 7.92515 8.48941 7.86787L9.48174 12.0175C10.0087 11.8915 10.4905 11.622 10.8737 11.2388L7.8567 8.22183ZM8.52817 7.85898C8.60664 7.84176 8.67243 7.83306 8.71585 7.82882C8.75018 7.82546 8.76382 7.8256 8.73838 7.82649C8.71503 7.82732 8.673 7.82832 8.60145 7.82905C8.53107 7.82978 8.43972 7.83017 8.31998 7.83017V12.0968C8.69027 12.0968 9.09214 12.1034 9.44298 12.0264L8.52817 7.85898ZM8.31998 7.83017H4.47998V12.0968H8.31998V7.83017ZM4.47998 7.83017C4.35928 7.83017 4.26763 7.82987 4.19677 7.82923C4.12439 7.82858 4.08386 7.82764 4.06241 7.82689C4.05254 7.82654 4.05176 7.8264 4.05755 7.82676C4.06326 7.82712 4.07988 7.82824 4.10423 7.83086C4.12921 7.83353 4.16427 7.83798 4.2067 7.84536C4.25062 7.85301 4.29582 7.86264 4.34149 7.87432L3.28406 12.0079C3.55001 12.0759 3.78259 12.0863 3.91234 12.0909C4.05236 12.0958 4.23883 12.0968 4.47998 12.0968V7.83017ZM4.30894 7.86627C4.54849 7.92355 4.76749 8.04607 4.94165 8.22023L1.92466 11.2372C2.30781 11.6204 2.7896 11.8899 3.31661 12.0159L4.30894 7.86627ZM4.94165 8.22023C5.11581 8.39439 5.23832 8.61339 5.29561 8.85294L1.14594 9.84527C1.27197 10.3723 1.54151 10.8541 1.92466 11.2372L4.94165 8.22023ZM5.3045 8.8917C5.32172 8.97017 5.33042 9.03596 5.33466 9.07938C5.33802 9.1137 5.33788 9.12735 5.33698 9.10191C5.33616 9.07855 5.33516 9.03652 5.33442 8.96497C5.3337 8.89459 5.33331 8.80324 5.33331 8.6835H1.06664C1.06664 9.0538 1.06004 9.45566 1.13705 9.8065L5.3045 8.8917ZM5.33331 8.6835V4.8435H1.06664V8.6835H5.33331ZM5.33331 4.8435C5.33331 4.7228 5.33361 4.63115 5.33425 4.56029C5.3349 4.48792 5.33583 4.44738 5.33659 4.42594C5.33694 4.41607 5.33708 4.41529 5.33671 4.42107C5.33636 4.42678 5.33523 4.4434 5.33262 4.46775C5.32994 4.49273 5.3255 4.52779 5.31811 4.57022C5.31047 4.61414 5.30084 4.65935 5.28915 4.70501L1.1556 3.64759C1.08756 3.91354 1.07713 4.14611 1.07256 4.27586C1.06763 4.41588 1.06664 4.60236 1.06664 4.8435H5.33331ZM5.29721 4.67247C5.23992 4.91201 5.11741 5.13101 4.94325 5.30517L1.92626 2.28818C1.5431 2.67134 1.27357 3.15313 1.14754 3.68013L5.29721 4.67247ZM4.94325 5.30517C4.76909 5.47933 4.55009 5.60185 4.31054 5.65913L3.31821 1.50947C2.79121 1.63549 2.30941 1.90503 1.92626 2.28818L4.94325 5.30517ZM15.68 -0.169832H15.6V4.09683H15.68V-0.169832ZM15.6 -0.169832C15.3038 -0.169832 14.719 -0.181275 14.1507 -0.0473659L15.1293 4.10557C15.0985 4.1128 15.1084 4.10676 15.1966 4.10222C15.2909 4.09736 15.404 4.09683 15.6 4.09683V-0.169832ZM14.1442 -0.0458181C13.3301 0.148707 12.5858 0.564812 11.9937 1.15639L15.0093 4.17474C15.0441 4.13994 15.0879 4.11546 15.1358 4.10402L14.1442 -0.0458181ZM11.9937 1.15639C11.4015 1.74797 10.9848 2.49192 10.7895 3.30583L14.9384 4.30118C14.9499 4.2533 14.9744 4.20954 15.0093 4.17474L11.9937 1.15639ZM10.7849 3.32555C10.6557 3.8873 10.6666 4.46391 10.6666 4.7635H14.9333C14.9333 4.56687 14.9338 4.45258 14.9386 4.35697C14.9431 4.26767 14.9492 4.25482 14.9431 4.28146L10.7849 3.32555ZM10.6666 4.7635V8.7635H14.9333V4.7635H10.6666ZM10.6666 8.7635C10.6666 9.05969 10.6552 9.64448 10.7891 10.2128L14.942 9.23422C14.9493 9.26493 14.9432 9.25511 14.9387 9.1669C14.9338 9.07256 14.9333 8.95952 14.9333 8.7635H10.6666ZM10.7907 10.2193C10.9852 11.0334 11.4013 11.7777 11.9929 12.3698L15.0112 9.3542C14.9764 9.31937 14.9519 9.27558 14.9405 9.2277L10.7907 10.2193ZM11.9929 12.3698C12.5844 12.9619 13.3284 13.3787 14.1423 13.574L15.1377 9.42503C15.0898 9.41354 15.046 9.38903 15.0112 9.3542L11.9929 12.3698ZM14.162 13.5786C14.7238 13.7077 15.3004 13.6968 15.6 13.6968V9.43017C15.4033 9.43017 15.2891 9.42966 15.1934 9.42486C15.1041 9.42037 15.0913 9.41428 15.1179 9.4204L14.162 13.5786ZM15.6 13.6968H19.6V9.43017H15.6V13.6968ZM19.6 13.6968C19.8962 13.6968 20.481 13.7083 21.0493 13.5744L20.0707 9.42143C20.1014 9.4142 20.0916 9.42025 20.0034 9.42479C19.909 9.42964 19.796 9.43017 19.6 9.43017V13.6968ZM21.0558 13.5728C21.8699 13.3783 22.6142 12.9622 23.2063 12.3706L20.1907 9.35226C20.1558 9.38706 20.1121 9.41154 20.0642 9.42298L21.0558 13.5728ZM23.2063 12.3706C23.7984 11.779 24.2152 11.0351 24.4104 10.2212L20.2615 9.22583C20.25 9.2737 20.2255 9.31746 20.1907 9.35226L23.2063 12.3706ZM24.4151 10.2015C24.5442 9.63971 24.5333 9.06309 24.5333 8.7635H20.2666C20.2666 8.96013 20.2661 9.07442 20.2613 9.17003C20.2568 9.25933 20.2508 9.27218 20.2569 9.24555L24.4151 10.2015ZM24.5333 8.7635V4.7635H20.2666V8.7635H24.5333ZM24.5333 4.7635C24.5333 4.46731 24.5448 3.88252 24.4108 3.31422L20.2579 4.29278C20.2507 4.26207 20.2567 4.27189 20.2613 4.3601C20.2661 4.45444 20.2666 4.56748 20.2666 4.7635H24.5333ZM24.4093 3.3077C24.2148 2.49362 23.7987 1.74929 23.2071 1.15718L20.1887 4.1728C20.2235 4.20763 20.248 4.25142 20.2595 4.29931L24.4093 3.3077ZM23.2071 1.15718C22.6155 0.565064 21.8716 0.148288 21.0577 -0.0469706L20.0623 4.10197C20.1102 4.11346 20.1539 4.13797 20.1887 4.1728L23.2071 1.15718ZM21.0379 -0.0516024C20.4762 -0.18074 19.8996 -0.169832 19.6 -0.169832V4.09683C19.7966 4.09683 19.9109 4.09734 20.0065 4.10215C20.0958 4.10663 20.1087 4.11273 20.082 4.1066L21.0379 -0.0516024ZM19.6 -0.169832H19.52V4.09683H19.6V-0.169832ZM19.52 -0.169832H15.68V4.09683H19.52V-0.169832ZM15.496 5.66378C15.4585 5.6725 15.421 5.67991 15.384 5.68593C15.3483 5.69175 15.3188 5.69534 15.2977 5.69754C15.2598 5.70147 15.2433 5.70145 15.2673 5.70056C15.2891 5.69975 15.3299 5.69872 15.4008 5.69796C15.4705 5.69723 15.561 5.69683 15.68 5.69683V1.43017C15.3206 1.43017 14.8994 1.42201 14.5295 1.50802L15.496 5.66378ZM15.68 5.69683H19.52V1.43017H15.68V5.69683ZM19.52 5.69683C19.6407 5.69683 19.7323 5.69713 19.8032 5.69777C19.8756 5.69843 19.9161 5.69936 19.9375 5.70011C19.9474 5.70046 19.9482 5.7006 19.9424 5.70024C19.9367 5.69988 19.9201 5.69876 19.8957 5.69615C19.8707 5.69347 19.8357 5.68902 19.7933 5.68164C19.7493 5.674 19.7041 5.66436 19.6585 5.65268L20.7159 1.51912C20.4499 1.45109 20.2174 1.44065 20.0876 1.43609C19.9476 1.43116 19.7611 1.43017 19.52 1.43017V5.69683ZM19.691 5.66073C19.4515 5.60345 19.2325 5.48093 19.0583 5.30677L22.0753 2.28978C21.6921 1.90663 21.2103 1.63709 20.6833 1.51107L19.691 5.66073ZM19.0583 5.30677C18.8842 5.13262 18.7616 4.91362 18.7043 4.67407L22.854 3.68174C22.728 3.15472 22.4584 2.67293 22.0753 2.28978L19.0583 5.30677ZM18.7039 4.67202C18.6936 4.62892 18.6852 4.58667 18.6787 4.54612C18.6724 4.50701 18.6686 4.47504 18.6664 4.45283C18.6625 4.41347 18.6626 4.396 18.6634 4.42187C18.6642 4.44508 18.6651 4.48701 18.6657 4.55966C18.6663 4.63092 18.6666 4.7229 18.6666 4.8435H22.9333C22.9333 4.6012 22.9323 4.41738 22.9277 4.28033C22.9236 4.15472 22.9143 3.93476 22.8545 3.68378L18.7039 4.67202ZM18.6666 4.8435V8.6835H22.9333V4.8435H18.6666ZM18.6666 8.6835C18.6666 8.80292 18.6663 8.89363 18.6655 8.96339C18.6648 9.03441 18.6637 9.075 18.6629 9.09665C18.662 9.12036 18.662 9.10338 18.666 9.06502C18.6683 9.04361 18.6719 9.01398 18.6778 8.97822C18.6838 8.94124 18.6912 8.90408 18.6997 8.86747L22.8555 9.83393C22.9414 9.46419 22.9333 9.0448 22.9333 8.6835H18.6666ZM18.7027 8.85454C18.76 8.61499 18.8825 8.39599 19.0567 8.22183L22.0737 11.2388C22.4569 10.8557 22.7264 10.3739 22.8524 9.84687L18.7027 8.85454ZM19.0567 8.22183C19.2309 8.04767 19.4499 7.92515 19.6894 7.86787L20.6817 12.0175C21.2087 11.8915 21.6905 11.622 22.0737 11.2388L19.0567 8.22183ZM19.6915 7.86738C19.7346 7.85712 19.7768 7.84877 19.8174 7.84221C19.8565 7.83589 19.8884 7.83213 19.9106 7.82992C19.95 7.82599 19.9675 7.82608 19.9416 7.82694C19.9184 7.82771 19.8765 7.82862 19.8038 7.82925C19.7326 7.82987 19.6406 7.83017 19.52 7.83017V12.0968C19.7623 12.0968 19.9461 12.0958 20.0832 12.0913C20.2088 12.0871 20.4287 12.0778 20.6797 12.018L19.6915 7.86738ZM19.52 7.83017H15.68V12.0968H19.52V7.83017ZM15.68 7.83017C15.5593 7.83017 15.4676 7.82987 15.3968 7.82923C15.3244 7.82858 15.2839 7.82764 15.2624 7.82689C15.2525 7.82654 15.2518 7.8264 15.2575 7.82676C15.2633 7.82712 15.2799 7.82824 15.3042 7.83086C15.3292 7.83353 15.3643 7.83798 15.4067 7.84536C15.4506 7.85301 15.4958 7.86264 15.5415 7.87432L14.4841 12.0079C14.75 12.0759 14.9826 12.0863 15.1123 12.0909C15.2524 12.0958 15.4388 12.0968 15.68 12.0968V7.83017ZM15.5089 7.86627C15.7485 7.92355 15.9675 8.04607 16.1416 8.22023L13.1247 11.2372C13.5078 11.6204 13.9896 11.8899 14.5166 12.0159L15.5089 7.86627ZM16.1416 8.22023C16.3158 8.39438 16.4383 8.61338 16.4956 8.85294L12.3459 9.84527C12.472 10.3723 12.7415 10.8541 13.1247 11.2372L16.1416 8.22023ZM16.5045 8.8917C16.5217 8.97017 16.5304 9.03596 16.5347 9.07938C16.538 9.11371 16.5379 9.12735 16.537 9.10191C16.5362 9.07856 16.5352 9.03652 16.5344 8.96498C16.5337 8.89459 16.5333 8.80324 16.5333 8.6835H12.2666C12.2666 9.05379 12.26 9.45566 12.3371 9.8065L16.5045 8.8917ZM16.5333 8.6835V4.8435H12.2666V8.6835H16.5333ZM16.5333 4.8435C16.5333 4.7228 16.5336 4.63115 16.5342 4.56029C16.5349 4.48792 16.5358 4.44738 16.5366 4.42594C16.5369 4.41607 16.5371 4.41529 16.5367 4.42107C16.5364 4.42678 16.5352 4.4434 16.5326 4.46775C16.5299 4.49273 16.5255 4.52779 16.5181 4.57022C16.5105 4.61414 16.5008 4.65935 16.4892 4.70501L12.3556 3.64759C12.2876 3.91354 12.2771 4.14611 12.2726 4.27586C12.2676 4.41588 12.2666 4.60236 12.2666 4.8435H16.5333ZM16.4972 4.67247C16.4399 4.91201 16.3174 5.13101 16.1432 5.30517L13.1263 2.28818C12.7431 2.67134 12.4736 3.15314 12.3475 3.68013L16.4972 4.67247ZM16.1432 5.30517C15.9691 5.47933 15.7501 5.60185 15.5105 5.65913L14.5182 1.50947C13.9912 1.63549 13.5094 1.90503 13.1263 2.28818L16.1432 5.30517ZM4.39998 15.2968H8.39998V11.0302H4.39998V15.2968ZM8.39998 15.2968C8.59599 15.2968 8.70903 15.2974 8.80337 15.3022C8.89159 15.3068 8.9014 15.3128 8.87069 15.3056L9.84926 11.1526C9.28096 11.0187 8.69617 11.0302 8.39998 11.0302V15.2968ZM8.86417 15.304C8.91206 15.3155 8.95584 15.3399 8.99067 15.3747L12.0063 12.3564C11.4142 11.7648 10.6699 11.3487 9.85578 11.1542L8.86417 15.304ZM8.99067 15.3747C9.0255 15.4095 9.05002 15.4533 9.06151 15.5012L13.2104 14.5058C13.0152 13.6919 12.5984 12.948 12.0063 12.3564L8.99067 15.3747ZM9.05687 15.4815C9.05075 15.4548 9.05684 15.4677 9.06133 15.557C9.06614 15.6526 9.06664 15.7669 9.06664 15.9635H13.3333C13.3333 15.6639 13.3442 15.0873 13.2151 14.5255L9.05687 15.4815ZM9.06664 15.9635V19.9635H13.3333V15.9635H9.06664ZM9.06664 19.9635C9.06664 20.1595 9.06611 20.2726 9.06126 20.3669C9.05672 20.4551 9.05067 20.4649 9.05791 20.4342L13.2108 21.4128C13.3448 20.8445 13.3333 20.2597 13.3333 19.9635H9.06664ZM9.05946 20.4277C9.04802 20.4756 9.02354 20.5194 8.98874 20.5542L12.0071 23.5698C12.5987 22.9777 13.0148 22.2334 13.2093 21.4193L9.05946 20.4277ZM8.98874 20.5542C8.95394 20.589 8.91018 20.6135 8.8623 20.625L9.85765 24.774C10.6716 24.5787 11.4155 24.1619 12.0071 23.5698L8.98874 20.5542ZM8.88202 20.6204C8.90865 20.6143 8.89581 20.6204 8.80651 20.6249C8.7109 20.6297 8.59661 20.6302 8.39998 20.6302V24.8968C8.69956 24.8968 9.27618 24.9077 9.83793 24.7786L8.88202 20.6204ZM8.39998 20.6302H4.39998V24.8968H8.39998V20.6302ZM4.39998 20.6302C4.20396 20.6302 4.09092 20.6296 3.99658 20.6248C3.90836 20.6202 3.89855 20.6142 3.92926 20.6214L2.95069 24.7744C3.51899 24.9083 4.10378 24.8968 4.39998 24.8968V20.6302ZM3.93578 20.623C3.88789 20.6115 3.84411 20.5871 3.80928 20.5523L0.79365 23.5706C1.38576 24.1622 2.1301 24.5783 2.94417 24.7728L3.93578 20.623ZM3.80928 20.5523C3.77445 20.5175 3.74993 20.4737 3.73845 20.4258L-0.410496 21.4212C-0.215237 22.2351 0.201539 22.979 0.79365 23.5706L3.80928 20.5523ZM3.74308 20.4455C3.7492 20.4722 3.74311 20.4593 3.73862 20.37C3.73382 20.2744 3.73331 20.1601 3.73331 19.9635H-0.533358C-0.533358 20.2631 -0.544266 20.8397 -0.415128 21.4015L3.74308 20.4455ZM3.73331 19.9635V15.9635H-0.533358V19.9635H3.73331ZM3.73331 15.9635C3.73331 15.7675 3.73384 15.6544 3.73869 15.5601C3.74323 15.4719 3.74928 15.4621 3.74204 15.4928L-0.410891 14.5142C-0.544801 15.0825 -0.533358 15.6673 -0.533358 15.9635H3.73331ZM3.74049 15.4993C3.75194 15.4514 3.77641 15.4076 3.81121 15.3728L0.792865 12.3572C0.201287 12.9493 -0.214818 13.6936 -0.409343 14.5077L3.74049 15.4993ZM3.81121 15.3728C3.84601 15.338 3.88977 15.3135 3.93765 15.302L2.9423 11.153C2.1284 11.3483 1.38444 11.7651 0.792865 12.3572L3.81121 15.3728ZM3.91793 15.3066C3.8913 15.3127 3.90414 15.3066 3.99344 15.3021C4.08905 15.2973 4.20334 15.2968 4.39998 15.2968V11.0302C4.10039 11.0302 3.52377 11.0193 2.96202 11.1484L3.91793 15.3066ZM4.47998 12.6302C4.23883 12.6302 4.05236 12.6312 3.91234 12.6361C3.78259 12.6407 3.55001 12.6511 3.28406 12.7191L4.34149 16.8527C4.29582 16.8644 4.25062 16.874 4.2067 16.8816C4.16427 16.889 4.12921 16.8935 4.10423 16.8961C4.07988 16.8988 4.06326 16.8999 4.05755 16.9002C4.05176 16.9006 4.05254 16.9005 4.06241 16.9001C4.08386 16.8994 4.12439 16.8984 4.19677 16.8978C4.26763 16.8971 4.35928 16.8968 4.47998 16.8968V12.6302ZM3.31661 12.7111C2.78961 12.8371 2.30781 13.1066 1.92466 13.4898L4.94165 16.5068C4.76748 16.6809 4.54849 16.8035 4.30894 16.8607L3.31661 12.7111ZM1.92466 13.4898C1.5415 13.8729 1.27197 14.3547 1.14594 14.8817L5.29561 15.8741C5.23832 16.1136 5.11581 16.3326 4.94165 16.5068L1.92466 13.4898ZM1.13705 14.9205C1.06004 15.2713 1.06664 15.6732 1.06664 16.0435H5.33331C5.33331 15.9238 5.3337 15.8324 5.33442 15.762C5.33516 15.6905 5.33616 15.6484 5.33698 15.6251C5.33788 15.5997 5.33802 15.6133 5.33466 15.6476C5.33042 15.691 5.32172 15.7568 5.3045 15.8353L1.13705 14.9205ZM1.06664 16.0435V19.8835H5.33331V16.0435H1.06664ZM1.06664 19.8835C1.06664 20.1246 1.06763 20.3111 1.07256 20.4511C1.07713 20.5809 1.08756 20.8135 1.1556 21.0794L5.28915 20.022C5.30084 20.0677 5.31047 20.1129 5.31811 20.1568C5.3255 20.1992 5.32994 20.2343 5.33262 20.2592C5.33523 20.2836 5.33636 20.3002 5.33671 20.3059C5.33708 20.3117 5.33694 20.3109 5.33659 20.3011C5.33583 20.2796 5.3349 20.2391 5.33425 20.1667C5.33361 20.0958 5.33331 20.0042 5.33331 19.8835H1.06664ZM1.14754 21.0469C1.27357 21.5739 1.5431 22.0557 1.92626 22.4388L4.94325 19.4218C5.11741 19.596 5.23992 19.815 5.29721 20.0545L1.14754 21.0469ZM1.92626 22.4388C2.30941 22.822 2.7912 23.0915 3.31821 23.2175L4.31054 19.0679C4.5501 19.1252 4.76909 19.2477 4.94325 19.4218L1.92626 22.4388ZM3.32025 23.218C3.57124 23.2778 3.7912 23.2871 3.9168 23.2913C4.05385 23.2958 4.23767 23.2968 4.47998 23.2968V19.0302C4.35937 19.0302 4.2674 19.0299 4.19613 19.0292C4.12349 19.0286 4.08156 19.0277 4.05835 19.0269C4.03248 19.0261 4.04994 19.026 4.08931 19.0299C4.11151 19.0321 4.14348 19.0359 4.18259 19.0422C4.22314 19.0488 4.26539 19.0571 4.3085 19.0674L3.32025 23.218ZM4.47998 23.2968H8.31998V19.0302H4.47998V23.2968ZM8.31998 23.2968C8.68127 23.2968 9.10066 23.305 9.47041 23.219L8.50395 19.0632C8.54055 19.0547 8.57772 19.0473 8.61469 19.0413C8.65046 19.0354 8.68008 19.0318 8.70149 19.0296C8.73985 19.0256 8.75683 19.0256 8.73313 19.0264C8.71148 19.0273 8.67089 19.0283 8.59986 19.029C8.53011 19.0298 8.43939 19.0302 8.31998 19.0302V23.2968ZM9.48334 23.2159C10.0103 23.0899 10.4921 22.8204 10.8753 22.4372L7.8583 19.4202C8.03247 19.2461 8.25146 19.1236 8.49101 19.0663L9.48334 23.2159ZM10.8753 22.4372C11.2584 22.0541 11.528 21.5723 11.654 21.0453L7.50434 20.0529C7.56163 19.8134 7.68415 19.5944 7.8583 19.4202L10.8753 22.4372ZM11.6545 21.0432C11.7143 20.7922 11.7236 20.5723 11.7277 20.4467C11.7323 20.3096 11.7333 20.1258 11.7333 19.8835H7.46664C7.46664 20.0041 7.46635 20.0961 7.46572 20.1673C7.46509 20.24 7.46419 20.2819 7.46342 20.3051C7.46256 20.331 7.46246 20.3135 7.46639 20.2742C7.46861 20.252 7.47236 20.22 7.47869 20.1809C7.48524 20.1403 7.49359 20.0981 7.50386 20.055L11.6545 21.0432ZM11.7333 19.8835V16.0435H7.46664V19.8835H11.7333ZM11.7333 16.0435C11.7333 15.8024 11.7323 15.6159 11.7274 15.4759C11.7228 15.3461 11.7124 15.1135 11.6444 14.8476L7.5108 15.905C7.49912 15.8593 7.48948 15.8141 7.48184 15.7702C7.47446 15.7278 7.47001 15.6927 7.46733 15.6678C7.46472 15.6434 7.4636 15.6268 7.46324 15.6211C7.46288 15.6153 7.46302 15.6161 7.46336 15.6259C7.46412 15.6474 7.46505 15.6879 7.4657 15.7603C7.46634 15.8312 7.46664 15.9228 7.46664 16.0435H11.7333ZM11.6524 14.8801C11.5264 14.3531 11.2568 13.8713 10.8737 13.4882L7.8567 16.5052C7.68255 16.331 7.56003 16.112 7.50274 15.8725L11.6524 14.8801ZM10.8737 13.4882C10.4905 13.105 10.0088 12.8355 9.48174 12.7095L8.48941 16.8591C8.24985 16.8018 8.03086 16.6793 7.8567 16.5052L10.8737 13.4882ZM9.44298 12.7006C9.09213 12.6236 8.69026 12.6302 8.31998 12.6302V16.8968C8.43972 16.8968 8.53107 16.8972 8.60145 16.8979C8.673 16.8987 8.71503 16.8997 8.73839 16.9005C8.76383 16.9014 8.75018 16.9015 8.71586 16.8982C8.67244 16.8939 8.60665 16.8852 8.52817 16.868L9.44298 12.7006ZM8.31998 12.6302H4.47998V16.8968H8.31998V12.6302ZM15.68 11.0302H15.6V15.2968H15.68V11.0302ZM15.6 11.0302C15.3038 11.0302 14.719 11.0187 14.1507 11.1526L15.1293 15.3056C15.0985 15.3128 15.1084 15.3068 15.1966 15.3022C15.2909 15.2974 15.404 15.2968 15.6 15.2968V11.0302ZM14.1442 11.1542C13.3301 11.3487 12.5858 11.7648 11.9937 12.3564L15.0093 15.3747C15.0441 15.3399 15.0879 15.3155 15.1358 15.304L14.1442 11.1542ZM11.9937 12.3564C11.4015 12.948 10.9848 13.6919 10.7895 14.5058L14.9384 15.5012C14.9499 15.4533 14.9744 15.4095 15.0093 15.3747L11.9937 12.3564ZM10.7849 14.5255C10.6557 15.0873 10.6666 15.6639 10.6666 15.9635H14.9333C14.9333 15.7669 14.9338 15.6526 14.9386 15.557C14.9431 15.4677 14.9492 15.4548 14.9431 15.4815L10.7849 14.5255ZM10.6666 15.9635V19.9635H14.9333V15.9635H10.6666ZM10.6666 19.9635C10.6666 20.2597 10.6552 20.8445 10.7891 21.4128L14.942 20.4342C14.9493 20.4649 14.9432 20.4551 14.9387 20.3669C14.9338 20.2726 14.9333 20.1595 14.9333 19.9635H10.6666ZM10.7907 21.4193C10.9852 22.2334 11.4013 22.9777 11.9929 23.5698L15.0112 20.5542C14.9764 20.5194 14.9519 20.4756 14.9405 20.4277L10.7907 21.4193ZM11.9929 23.5698C12.5844 24.1619 13.3284 24.5787 14.1423 24.774L15.1377 20.625C15.0898 20.6135 15.046 20.589 15.0112 20.5542L11.9929 23.5698ZM14.1507 24.776C14.719 24.9099 15.3038 24.8984 15.6 24.8984V20.6318C15.404 20.6318 15.2909 20.6312 15.1966 20.6264C15.1084 20.6218 15.0985 20.6158 15.1293 20.623L14.1507 24.776ZM15.6 24.8984H19.6V20.6318H15.6V24.8984ZM19.6 24.8984C19.8962 24.8984 20.481 24.9099 21.0493 24.776L20.0707 20.623C20.1014 20.6158 20.0916 20.6218 20.0034 20.6264C19.909 20.6312 19.796 20.6318 19.6 20.6318V24.8984ZM21.0573 24.7741C21.8708 24.579 22.6145 24.1627 23.2061 23.5712L20.1891 20.5542C20.1543 20.589 20.1105 20.6135 20.0627 20.6249L21.0573 24.7741ZM23.2061 23.5712C23.7976 22.9796 24.2139 22.2359 24.4089 21.4224L20.2598 20.4278C20.2483 20.4756 20.2239 20.5194 20.1891 20.5542L23.2061 23.5712ZM24.4108 21.4144C24.5448 20.8461 24.5333 20.2613 24.5333 19.9651H20.2666C20.2666 20.1611 20.2661 20.2742 20.2613 20.3685C20.2567 20.4567 20.2507 20.4665 20.2579 20.4358L24.4108 21.4144ZM24.5333 19.9651V15.9635H20.2666V19.9651H24.5333ZM24.5333 15.9635C24.5333 15.6673 24.5448 15.0825 24.4108 14.5142L20.2579 15.4928C20.2507 15.4621 20.2567 15.4719 20.2613 15.5601C20.2661 15.6544 20.2666 15.7675 20.2666 15.9635H24.5333ZM24.4093 14.5077C24.2148 13.6936 23.7987 12.9493 23.2071 12.3572L20.1887 15.3728C20.2235 15.4076 20.248 15.4514 20.2595 15.4993L24.4093 14.5077ZM23.2071 12.3572C22.6155 11.7651 21.8716 11.3483 21.0577 11.153L20.0623 15.302C20.1102 15.3135 20.1539 15.338 20.1887 15.3728L23.2071 12.3572ZM21.0379 11.1484C20.4762 11.0193 19.8996 11.0302 19.6 11.0302V15.2968C19.7966 15.2968 19.9109 15.2973 20.0065 15.3021C20.0958 15.3066 20.1087 15.3127 20.082 15.3066L21.0379 11.1484ZM19.6 11.0302H19.52V15.2968H19.6V11.0302ZM19.52 11.0302H15.68V15.2968H19.52V11.0302ZM15.496 16.8638C15.4585 16.8725 15.421 16.8799 15.384 16.8859C15.3483 16.8917 15.3188 16.8953 15.2977 16.8975C15.2598 16.9015 15.2433 16.9015 15.2673 16.9006C15.2891 16.8997 15.3299 16.8987 15.4008 16.898C15.4705 16.8972 15.561 16.8968 15.68 16.8968V12.6302C15.3206 12.6302 14.8994 12.622 14.5295 12.708L15.496 16.8638ZM15.68 16.8968H19.52V12.6302H15.68V16.8968ZM19.52 16.8968C19.6407 16.8968 19.7323 16.8971 19.8032 16.8978C19.8756 16.8984 19.9161 16.8994 19.9375 16.9001C19.9474 16.9005 19.9482 16.9006 19.9424 16.9002C19.9367 16.8999 19.9201 16.8988 19.8957 16.8961C19.8707 16.8935 19.8357 16.889 19.7933 16.8816C19.7493 16.874 19.7041 16.8644 19.6585 16.8527L20.7159 12.7191C20.4499 12.6511 20.2174 12.6407 20.0876 12.6361C19.9476 12.6312 19.7611 12.6302 19.52 12.6302V16.8968ZM19.691 16.8607C19.4515 16.8035 19.2325 16.6809 19.0583 16.5068L22.0753 13.4898C21.6921 13.1066 21.2103 12.8371 20.6833 12.7111L19.691 16.8607ZM19.0583 16.5068C18.8842 16.3326 18.7616 16.1136 18.7043 15.8741L22.854 14.8817C22.728 14.3547 22.4584 13.8729 22.0753 13.4898L19.0583 16.5068ZM18.7039 15.872C18.6936 15.8289 18.6852 15.7867 18.6787 15.7461C18.6724 15.707 18.6686 15.675 18.6664 15.6528C18.6625 15.6135 18.6626 15.596 18.6634 15.6219C18.6642 15.6451 18.6651 15.687 18.6657 15.7597C18.6663 15.8309 18.6666 15.9229 18.6666 16.0435H22.9333C22.9333 15.8012 22.9323 15.6174 22.9277 15.4803C22.9236 15.3547 22.9143 15.1348 22.8545 14.8838L18.7039 15.872ZM18.6666 16.0435V19.8835H22.9333V16.0435H18.6666ZM18.6666 19.8835C18.6666 20.0029 18.6663 20.0936 18.6655 20.1634C18.6648 20.2344 18.6637 20.275 18.6629 20.2967C18.662 20.3204 18.662 20.3034 18.666 20.265C18.6683 20.2436 18.6719 20.214 18.6778 20.1782C18.6838 20.1412 18.6912 20.1041 18.6997 20.0675L22.8555 21.0339C22.9414 20.6642 22.9333 20.2448 22.9333 19.8835H18.6666ZM18.7027 20.0545C18.76 19.815 18.8825 19.596 19.0567 19.4218L22.0737 22.4388C22.4569 22.0557 22.7264 21.5739 22.8524 21.0469L18.7027 20.0545ZM19.0567 19.4218C19.2309 19.2477 19.4499 19.1252 19.6894 19.0679L20.6817 23.2175C21.2088 23.0915 21.6905 22.822 22.0737 22.4388L19.0567 19.4218ZM19.6915 19.0674C19.7346 19.0571 19.7768 19.0488 19.8174 19.0422C19.8565 19.0359 19.8884 19.0321 19.9106 19.0299C19.95 19.026 19.9675 19.0261 19.9416 19.0269C19.9184 19.0277 19.8765 19.0286 19.8038 19.0292C19.7326 19.0299 19.6406 19.0302 19.52 19.0302V23.2968C19.7623 23.2968 19.9461 23.2958 20.0832 23.2913C20.2088 23.2871 20.4287 23.2778 20.6797 23.218L19.6915 19.0674ZM19.52 19.0302H15.68V23.2968H19.52V19.0302ZM15.68 19.0302C15.5606 19.0302 15.4698 19.0298 15.4001 19.029C15.3291 19.0283 15.2885 19.0273 15.2668 19.0264C15.2431 19.0256 15.2601 19.0256 15.2985 19.0296C15.3199 19.0318 15.3495 19.0354 15.3853 19.0413C15.4222 19.0473 15.4594 19.0547 15.496 19.0632L14.5295 23.219C14.8993 23.305 15.3187 23.2968 15.68 23.2968V19.0302ZM15.5089 19.0663C15.7485 19.1236 15.9675 19.2461 16.1416 19.4202L13.1247 22.4372C13.5078 22.8204 13.9896 23.0899 14.5166 23.2159L15.5089 19.0663ZM16.1416 19.4202C16.3158 19.5944 16.4383 19.8134 16.4956 20.0529L12.3459 21.0453C12.472 21.5723 12.7415 22.0541 13.1247 22.4372L16.1416 19.4202ZM16.5045 20.0917C16.5217 20.1702 16.5304 20.236 16.5347 20.2794C16.538 20.3137 16.5379 20.3274 16.537 20.3019C16.5362 20.2786 16.5352 20.2365 16.5344 20.165C16.5337 20.0946 16.5333 20.0032 16.5333 19.8835H12.2666C12.2666 20.2538 12.26 20.6557 12.3371 21.0065L16.5045 20.0917ZM16.5333 19.8835V16.0435H12.2666V19.8835H16.5333ZM16.5333 16.0435C16.5333 15.9228 16.5336 15.8312 16.5342 15.7603C16.5349 15.6879 16.5358 15.6474 16.5366 15.6259C16.5369 15.6161 16.5371 15.6153 16.5367 15.6211C16.5364 15.6268 16.5352 15.6434 16.5326 15.6678C16.5299 15.6927 16.5255 15.7278 16.5181 15.7702C16.5105 15.8141 16.5008 15.8593 16.4892 15.905L12.3556 14.8476C12.2876 15.1135 12.2771 15.3461 12.2726 15.4759C12.2676 15.6159 12.2666 15.8024 12.2666 16.0435H16.5333ZM16.4972 15.8725C16.4399 16.112 16.3174 16.331 16.1432 16.5052L13.1263 13.4882C12.7431 13.8713 12.4736 14.3531 12.3475 14.8801L16.4972 15.8725ZM16.1432 16.5052C15.9691 16.6793 15.7501 16.8018 15.5105 16.8591L14.5182 12.7095C13.9912 12.8355 13.5094 13.105 13.1263 13.4882L16.1432 16.5052Z" fill="#4B01B9" mask="url(#path-1-inside-1_5004_1827)"/>
</svg>
