<svg width="32" height="32" viewBox="0 0 32 32" fill="none" xmlns="http://www.w3.org/2000/svg">
<path fill-rule="evenodd" clip-rule="evenodd" d="M19.1804 20.5948C17.3833 22.0306 15.1046 22.7239 12.8123 22.5322C10.52 22.3404 8.38811 21.2782 6.85451 19.5637C5.32091 17.8492 4.502 15.6126 4.56599 13.3132C4.62997 11.0137 5.57198 8.82609 7.19854 7.19952C8.82511 5.57295 11.0128 4.63094 13.3122 4.56696C15.6116 4.50298 17.8482 5.32188 19.5627 6.85548C21.2772 8.38909 22.3394 10.521 22.5312 12.8133C22.7229 15.1056 22.0297 17.3843 20.5938 19.1814L27.4684 26.0548C27.5667 26.1463 27.6455 26.2567 27.7001 26.3794C27.7548 26.502 27.7842 26.6345 27.7866 26.7687C27.7889 26.903 27.7642 27.0364 27.7139 27.1609C27.6636 27.2854 27.5888 27.3985 27.4938 27.4935C27.3989 27.5884 27.2858 27.6633 27.1612 27.7136C27.0367 27.7639 26.9033 27.7886 26.7691 27.7862C26.6348 27.7838 26.5024 27.7544 26.3797 27.6998C26.2571 27.6451 26.1467 27.5663 26.0551 27.4681L19.1804 20.5948ZM8.61244 18.5121C7.63383 17.5334 6.96731 16.2865 6.69713 14.9291C6.42694 13.5717 6.56521 12.1647 7.09446 10.8858C7.62371 9.60697 8.52019 8.51372 9.67059 7.74422C10.821 6.97473 12.1737 6.56353 13.5577 6.5626C14.9418 6.56166 16.295 6.97104 17.4465 7.73899C18.5979 8.50693 19.4959 9.59898 20.0268 10.8771C20.5578 12.1553 20.698 13.5621 20.4296 14.9199C20.1612 16.2776 19.4964 17.5254 18.5191 18.5054L18.5124 18.5121L18.5058 18.5174C17.1926 19.8276 15.413 20.5629 13.558 20.5619C11.703 20.5609 9.92424 19.8237 8.61244 18.5121Z" fill="#8534FE"/>
</svg>
