<svg width="55" height="53" viewBox="0 0 55 53" fill="none" xmlns="http://www.w3.org/2000/svg">
<path d="M10.3333 25.6666C8.73333 28.3332 3.44444 27.6666 1 26.9999V53L53.6666 23.6667V1C51 2.6 48.1111 6.55556 47 8.33333C46.7778 10.1111 45.6666 13.4 43 12.3333C39.6666 11 37 7.66664 35 12.3333C33 17 30.3333 15.6666 27.6667 15.6666C25.5333 15.6666 24.1111 19.2222 23.6667 21C23 21.4444 20.4667 21.6666 15.6667 18.9999C9.66666 15.6666 12.3333 22.3332 10.3333 25.6666Z" fill="url(#paint0_linear_5094_1246)"/>
<path d="M1 26.9999C3.44444 27.6666 8.73333 28.3332 10.3333 25.6666C12.3333 22.3332 9.66666 15.6666 15.6667 18.9999C20.4667 21.6666 23 21.4444 23.6667 21C24.1111 19.2222 25.5333 15.6666 27.6667 15.6666C30.3333 15.6666 33 17 35 12.3333C37 7.66664 39.6666 11 43 12.3333C45.6666 13.4 46.7778 10.1111 47 8.33333C48.1111 6.55556 51 2.6 53.6666 1" stroke="#0B7B69" stroke-width="1.33333" stroke-linecap="round"/>
<defs>
<linearGradient id="paint0_linear_5094_1246" x1="26.3333" y1="16.3333" x2="35" y2="35" gradientUnits="userSpaceOnUse">
<stop stop-color="#15A269" stop-opacity="0.3"/>
<stop offset="0.520593" stop-color="#15A269" stop-opacity="0.1"/>
<stop offset="1" stop-color="#15A269" stop-opacity="0"/>
</linearGradient>
</defs>
</svg>
