<svg width="53" height="55" viewBox="0 0 53 55" fill="none" xmlns="http://www.w3.org/2000/svg">
<path d="M0.5 0.708273C0.482346 0.635353 0.48204 0.565858 0.5 0.5V0.708273C1.13764 3.34193 24.4052 10.4431 27 12C27.6666 12.3999 29 12.7136 29 14.5C29 19.991 31.5556 24 32 24.6667C33.7778 25.1111 37.3334 26.5333 37.3334 28.6667C37.3334 31.3333 36 34 40.6667 36C45.3334 38 44.8333 39.6667 43.5 43C43.3 43.5 45.2222 43.8889 47 45C48.7778 46.1111 50.4 46.8333 52 49.5L29.3333 54.6666L0.5 19V0.708273Z" fill="url(#paint0_linear_5094_1296)"/>
<path d="M1 1C0.333333 3.44444 8.66658 6.16667 18.5 9C22.2353 10.0763 28 10.5 29 16C29.9823 21.4024 31.5556 24 32 24.6667C33.7778 25.1111 37.3334 26.5333 37.3334 28.6667C37.3334 31.3333 36 34 40.6667 36C42 36.5714 44 38 44 39.5C44 42.3721 43.7222 43.7778 45.5 44C47.2778 45.1111 49.9 46.3333 51.5 49" stroke="#C03744" stroke-width="1.33333" stroke-linecap="round"/>
<defs>
<linearGradient id="paint0_linear_5094_1296" x1="29.5" y1="22.5" x2="18" y2="36" gradientUnits="userSpaceOnUse">
<stop stop-color="#FF6D6D" stop-opacity="0.3"/>
<stop offset="0.520593" stop-color="#FF6666" stop-opacity="0.1"/>
<stop offset="1" stop-color="#FE5454" stop-opacity="0"/>
</linearGradient>
</defs>
</svg>
