<svg width="16" height="16" viewBox="0 0 16 16" fill="none" xmlns="http://www.w3.org/2000/svg">
<g clip-path="url(#clip0_5004_11)">
<path d="M3.65398 1.32805C3.59495 1.25211 3.52043 1.1896 3.43538 1.14468C3.35034 1.09975 3.2567 1.07343 3.1607 1.06747C3.0647 1.06151 2.96853 1.07605 2.87858 1.11012C2.78863 1.14418 2.70695 1.19699 2.63898 1.26505L1.60498 2.30005C1.12198 2.78405 0.943983 3.46905 1.15498 4.07005C2.03171 6.55716 3.45614 8.81546 5.32298 10.6781C7.18557 12.5449 9.44387 13.9693 11.931 14.8461C12.532 15.0571 13.217 14.8791 13.701 14.3961L14.735 13.3621C14.803 13.2941 14.8559 13.2124 14.8899 13.1225C14.924 13.0325 14.9385 12.9363 14.9326 12.8403C14.9266 12.7443 14.9003 12.6507 14.8554 12.5656C14.8104 12.4806 14.7479 12.4061 14.672 12.3471L12.365 10.5531C12.2838 10.4903 12.1894 10.4467 12.089 10.4255C11.9885 10.4044 11.8846 10.4063 11.785 10.4311L9.59498 10.9781C9.30264 11.0506 8.99651 11.0465 8.70623 10.9661C8.41594 10.8857 8.15132 10.7317 7.93798 10.5191L5.48198 8.06205C5.26916 7.84881 5.115 7.58424 5.03441 7.29395C4.95382 7.00366 4.94954 6.69748 5.02198 6.40505L5.56998 4.21505C5.59474 4.11544 5.59663 4.01151 5.5755 3.91106C5.55437 3.81061 5.51078 3.71625 5.44798 3.63505L3.65398 1.32805ZM1.88398 0.511051C2.05898 0.336 2.26921 0.200181 2.50072 0.112612C2.73223 0.0250429 2.97973 -0.0122724 3.22676 0.00314389C3.4738 0.0185602 3.71474 0.0863553 3.93356 0.202028C4.15239 0.3177 4.34411 0.478602 4.49598 0.674051L6.28998 2.98005C6.61898 3.40305 6.73498 3.95405 6.60498 4.47405L6.05798 6.66405C6.0299 6.77749 6.03153 6.89625 6.0627 7.00888C6.09388 7.12151 6.15356 7.2242 6.23598 7.30705L8.69298 9.76405C8.77593 9.84664 8.87879 9.90642 8.99161 9.9376C9.10443 9.96878 9.2234 9.97032 9.33698 9.94205L11.526 9.39505C11.7826 9.33126 12.0504 9.32647 12.3091 9.38102C12.5679 9.43558 12.8109 9.54807 13.02 9.71005L15.326 11.5041C16.155 12.149 16.231 13.3741 15.489 14.1151L14.455 15.1491C13.715 15.8891 12.609 16.2141 11.578 15.8511C8.93865 14.9236 6.54252 13.4128 4.56798 11.4311C2.58636 9.4568 1.07553 7.06102 0.147983 4.42205C-0.214017 3.39205 0.110983 2.28505 0.850983 1.54505L1.88398 0.511051Z" fill="#5B01E1"/>
</g>
<defs>
<clipPath id="clip0_5004_11">
<rect width="16" height="16" fill="white"/>
</clipPath>
</defs>
</svg>
