<svg width="24" height="25" viewBox="0 0 24 25" fill="none" xmlns="http://www.w3.org/2000/svg">
<g clip-path="url(#clip0_5004_1838)">
<path d="M19 12.3635C19 12.6287 18.8946 12.8831 18.7071 13.0706C18.5196 13.2582 18.2652 13.3635 18 13.3635C17.7348 13.3635 17.4804 13.2582 17.2929 13.0706C17.1054 12.8831 17 12.6287 17 12.3635C17 12.0983 17.1054 11.844 17.2929 11.6564C17.4804 11.4689 17.7348 11.3635 18 11.3635C18.2652 11.3635 18.5196 11.4689 18.7071 11.6564C18.8946 11.844 19 12.0983 19 12.3635Z" fill="#323F49"/>
<path fill-rule="evenodd" clip-rule="evenodd" d="M9.70505 2.59607H13.1789C15.2306 2.59607 16.8559 2.59607 18.1274 2.76686C19.4357 2.94323 20.495 3.31384 21.3311 4.14881C22.3625 5.18137 22.6918 6.56333 22.8113 8.35719C23.4554 8.6396 23.9421 9.23905 23.9945 9.99812C24.0001 10.0662 24.0001 10.1388 24.0001 10.2057V14.5213C24.0001 14.5883 24.0001 14.6608 23.9957 14.7278C23.9421 15.4869 23.4554 16.0874 22.8113 16.371C22.6918 18.1637 22.3625 19.5456 21.3311 20.5782C20.495 21.4132 19.4357 21.7838 18.1274 21.9602C16.8548 22.131 15.2306 22.131 13.1789 22.131H9.70505C7.65333 22.131 6.02803 22.131 4.75659 21.9602C3.44831 21.7838 2.38896 21.4132 1.55287 20.5782C0.71789 19.7421 0.347285 18.6828 0.170913 17.3745C0.00012207 16.1019 0.00012207 14.4777 0.00012207 12.426V12.301C0.00012207 10.2493 0.00012207 8.62398 0.170913 7.35253C0.347285 6.04426 0.71789 4.98491 1.55287 4.14881C2.38896 3.31384 3.44831 2.94323 4.75659 2.76686C6.02915 2.59607 7.65333 2.59607 9.70505 2.59607ZM21.1179 16.5496H18.9545C16.5601 16.5496 14.5106 14.7323 14.5106 12.3635C14.5106 9.99477 16.5601 8.17746 18.9534 8.17746H21.1168C20.9895 6.68053 20.7026 5.88909 20.1456 5.33319C19.6734 4.861 19.026 4.57746 17.903 4.42677C16.7566 4.27272 15.244 4.27049 13.1153 4.27049H9.76645C7.6377 4.27049 6.12626 4.27272 4.97761 4.42677C3.85575 4.57746 3.20831 4.861 2.73612 5.33319C2.26394 5.80537 1.9804 6.45281 1.8297 7.57579C1.67566 8.72332 1.67342 10.2348 1.67342 12.3635C1.67342 14.4923 1.67566 16.0048 1.8297 17.1523C1.9804 18.2742 2.26394 18.9216 2.73612 19.3938C3.20831 19.866 3.85575 20.1496 4.97873 20.3003C6.12626 20.4543 7.6377 20.4565 9.76645 20.4565H13.1153C15.244 20.4565 16.7566 20.4543 17.9041 20.3003C19.026 20.1496 19.6734 19.866 20.1456 19.3938C20.7026 18.8379 20.9906 18.0476 21.1179 16.5496ZM4.46524 7.89839C4.46524 7.67635 4.55344 7.46341 4.71045 7.3064C4.86746 7.14939 5.08041 7.06119 5.30245 7.06119H9.76756C9.98961 7.06119 10.2026 7.14939 10.3596 7.3064C10.5166 7.46341 10.6048 7.67635 10.6048 7.89839C10.6048 8.12044 10.5166 8.33338 10.3596 8.49039C10.2026 8.6474 9.98961 8.7356 9.76756 8.7356H5.30245C5.08041 8.7356 4.86746 8.6474 4.71045 8.49039C4.55344 8.33338 4.46524 8.12044 4.46524 7.89839ZM21.9618 9.85188H18.9545C17.365 9.85188 16.1851 11.034 16.1851 12.3635C16.1851 13.693 17.365 14.8751 18.9534 14.8751H21.9875C22.2174 14.8606 22.3168 14.7055 22.3246 14.6117V10.1153C22.3168 10.0216 22.2174 9.86639 21.9875 9.853L21.9618 9.85188Z" fill="#323F49"/>
</g>
<defs>
<clipPath id="clip0_5004_1838">
<rect width="24" height="24" fill="white" transform="translate(0 0.363525)"/>
</clipPath>
</defs>
</svg>
