<svg width="24" height="25" viewBox="0 0 24 25" fill="none" xmlns="http://www.w3.org/2000/svg">
<path d="M15 18.3635V19.1135C15 19.9092 14.6839 20.6722 14.1213 21.2348C13.5587 21.7975 12.7956 22.1135 12 22.1135C11.2043 22.1135 10.4413 21.7975 9.87867 21.2348C9.31606 20.6722 8.99999 19.9092 8.99999 19.1135V18.3635M20.0475 16.8368C18.8437 15.3635 17.9939 14.6135 17.9939 10.5518C17.9939 6.83228 16.0945 5.50712 14.5312 4.86353C14.3236 4.77821 14.1281 4.58228 14.0648 4.36899C13.7906 3.43571 13.0219 2.61353 12 2.61353C10.9781 2.61353 10.2089 3.43618 9.93749 4.36993C9.87421 4.58556 9.67874 4.77821 9.47108 4.86353C7.90593 5.50806 6.00842 6.82853 6.00842 10.5518C6.00608 14.6135 5.15624 15.3635 3.95249 16.8368C3.45374 17.4471 3.89061 18.3635 4.76296 18.3635H19.2417C20.1094 18.3635 20.5434 17.4443 20.0475 16.8368Z" stroke="#323F49" stroke-width="2" stroke-linecap="round" stroke-linejoin="round"/>
</svg>
